<?xml version="1.0" encoding="utf-8"?>
<!-- Generator: Adobe Illustrator 22.0.0, SVG Export Plug-In . SVG Version: 6.00 Build 0)  -->
<svg version="1.1" id="Calque_1" xmlns="http://www.w3.org/2000/svg" xmlns:xlink="http://www.w3.org/1999/xlink" x="0px" y="0px"
	 viewBox="0 0 253 200" style="enable-background:new 0 0 253 200;" xml:space="preserve">
<style type="text/css">
	.st0{display:none;fill:#C5C3C6;}
	.st1{display:none;}
	.st2{display:inline;fill:#F2E94E;}
	.st3{fill:#C5C3C6;}
	.st4{display:inline;fill:#623CEA;}
	.st5{display:inline;fill:#C5C3C6;}
	.st6{fill:#DCDCDD;}
	.st7{display:inline;fill:#DCDCDD;}
</style>
<path class="st0" d="M44,70.5L44,70.5c0-4.7-3.8-8.5-8.5-8.5h-3c-4.7,0-8.5-3.8-8.5-8.5v0c0-4.7,3.8-8.5,8.5-8.5h105
	c4.7,0,8.5,3.8,8.5,8.5v0c0,4.7,3.8,8.5,8.5,8.5h3c4.7,0,8.5,3.8,8.5,8.5v0c0,4.7-3.8,8.5-8.5,8.5h-13c-4.7,0-8.5,3.8-8.5,8.5v0
	c0,4.7-3.8,8.5-8.5,8.5h-105c-4.7,0-8.5-3.8-8.5-8.5v0c0-4.7,3.8-8.5,8.5-8.5h13C40.2,79,44,75.2,44,70.5z"/>
<g class="st1">
	<circle class="st2" cx="128" cy="100" r="65"/>
</g>
<circle class="st0" cx="916" cy="80" r="65"/>
<circle class="st3" cx="126" cy="80" r="65"/>
<g class="st1">
	<circle class="st2" cx="123" cy="100" r="65"/>
</g>
<circle class="st0" cx="126" cy="82" r="65"/>
<g class="st1">
	<path class="st4" d="M77.5,149.5V96c0-4.7,3.8-8.5,8.5-8.5h0c4.7,0,8.5,3.8,8.5,8.5v53.5c0,4.7-3.8,8.5-8.5,8.5h0
		C81.3,158,77.5,154.2,77.5,149.5z"/>
	<path class="st4" d="M104,114.5v-18c0-4.7,3.8-8.5,8.5-8.5h0c4.7,0,8.5,3.8,8.5,8.5v18c0,4.7-3.8,8.5-8.5,8.5h0
		C107.8,123,104,119.2,104,114.5z"/>
	<path class="st4" d="M131,141.5v-45c0-4.7,3.8-8.5,8.5-8.5h0c4.7,0,8.5,3.8,8.5,8.5v45c0,4.7-3.8,8.5-8.5,8.5h0
		C134.8,150,131,146.2,131,141.5z"/>
	<circle class="st4" cx="85.5" cy="175.5" r="8.5"/>
	<path class="st4" d="M158.5,124.5V96c0-4.7,3.8-8.5,8.5-8.5h0c4.7,0,8.5,3.8,8.5,8.5v28.5c0,4.7-3.8,8.5-8.5,8.5h0
		C162.3,133,158.5,129.2,158.5,124.5z"/>
	<circle class="st4" cx="166.5" cy="151.5" r="8.5"/>
	<circle class="st4" cx="112.5" cy="141.5" r="8.5"/>
	<circle class="st4" cx="139.5" cy="168.5" r="8.5"/>
</g>
<g class="st1">
	<path class="st5" d="M193,129.5L193,129.5c0-4.7,3.8-8.5,8.5-8.5h3c4.7,0,8.5-3.8,8.5-8.5v0c0-4.7-3.8-8.5-8.5-8.5h-105
		c-4.7,0-8.5,3.8-8.5,8.5v0c0,4.7-3.8,8.5-8.5,8.5h-3c-4.7,0-8.5,3.8-8.5,8.5v0c0,4.7,3.8,8.5,8.5,8.5h13c4.7,0,8.5,3.8,8.5,8.5v0
		c0,4.7,3.8,8.5,8.5,8.5h105c4.7,0,8.5-3.8,8.5-8.5v0c0-4.7-3.8-8.5-8.5-8.5h-13C196.8,138,193,134.2,193,129.5z"/>
</g>
<circle class="st0" cx="230.5" cy="112.5" r="8.5"/>
<circle class="st0" cx="52.5" cy="129.5" r="8.5"/>
<g>
	<circle class="st6" cx="166.5" cy="92.5" r="8.5"/>
	<circle class="st6" cx="112.5" cy="92.5" r="8.5"/>
	<circle class="st6" cx="85.5" cy="92.5" r="8.5"/>
	<circle class="st6" cx="139.5" cy="92.5" r="8.5"/>
	<circle class="st6" cx="166.5" cy="122.5" r="8.5"/>
	<circle class="st6" cx="112.5" cy="120.5" r="8.5"/>
	<circle class="st6" cx="85.5" cy="128.5" r="8.5"/>
	<circle class="st6" cx="139.5" cy="133.5" r="8.5"/>
	<circle class="st6" cx="166.5" cy="159.5" r="8.5"/>
	<circle class="st6" cx="112.5" cy="157.5" r="8.5"/>
	<circle class="st6" cx="85.5" cy="165.5" r="8.5"/>
	<circle class="st6" cx="139.5" cy="170.5" r="8.5"/>
</g>
<g class="st1">
	<path class="st7" d="M993,62.5L993,62.5c0-4.7,3.8-8.5,8.5-8.5h3c4.7,0,8.5-3.8,8.5-8.5v0c0-4.7-3.8-8.5-8.5-8.5h-105
		c-4.7,0-8.5,3.8-8.5,8.5v0c0,4.7-3.8,8.5-8.5,8.5h-3c-4.7,0-8.5,3.8-8.5,8.5v0c0,4.7,3.8,8.5,8.5,8.5h13c4.7,0,8.5,3.8,8.5,8.5v0
		c0,4.7,3.8,8.5,8.5,8.5h105c4.7,0,8.5-3.8,8.5-8.5v0c0-4.7-3.8-8.5-8.5-8.5h-13C996.8,71,993,67.2,993,62.5z"/>
</g>
</svg>
