<?xml version="1.0" encoding="utf-8"?>
<!-- Generator: Adobe Illustrator 22.0.0, SVG Export Plug-In . SVG Version: 6.00 Build 0)  -->
<svg version="1.1" id="Calque_1" xmlns="http://www.w3.org/2000/svg" xmlns:xlink="http://www.w3.org/1999/xlink" x="0px" y="0px"
	 viewBox="0 0 200 200" style="enable-background:new 0 0 200 200;" xml:space="preserve">
<style type="text/css">
	.st0{display:none;fill:#C5C3C6;}
	.st1{fill:#F2E94E;}
	.st2{display:none;}
	.st3{display:inline;fill:#F2E94E;}
	.st4{display:inline;fill:#623CEA;}
	.st5{display:inline;fill:#C5C3C6;}
	.st6{display:inline;fill:#DCDCDD;}
</style>
<path class="st0" d="M223,50.5L223,50.5c0-4.7-3.8-8.5-8.5-8.5h-3c-4.7,0-8.5-3.8-8.5-8.5v0c0-4.7,3.8-8.5,8.5-8.5h105
	c4.7,0,8.5,3.8,8.5,8.5v0c0,4.7,3.8,8.5,8.5,8.5h3c4.7,0,8.5,3.8,8.5,8.5v0c0,4.7-3.8,8.5-8.5,8.5h-13c-4.7,0-8.5,3.8-8.5,8.5v0
	c0,4.7-3.8,8.5-8.5,8.5h-105c-4.7,0-8.5-3.8-8.5-8.5v0c0-4.7,3.8-8.5,8.5-8.5h13C219.2,59,223,55.2,223,50.5z"/>
<g>
	<circle class="st1" cx="101" cy="100" r="65"/>
</g>
<circle class="st0" cx="889" cy="80" r="65"/>
<circle class="st0" cx="703" cy="80" r="65"/>
<g class="st2">
	<circle class="st3" cx="302" cy="80" r="65"/>
</g>
<circle class="st0" cx="510" cy="82" r="65"/>
<g class="st2">
	<path class="st4" d="M461.5,149.5V96c0-4.7,3.8-8.5,8.5-8.5l0,0c4.7,0,8.5,3.8,8.5,8.5v53.5c0,4.7-3.8,8.5-8.5,8.5l0,0
		C465.3,158,461.5,154.2,461.5,149.5z"/>
	<path class="st4" d="M488,114.5v-18c0-4.7,3.8-8.5,8.5-8.5l0,0c4.7,0,8.5,3.8,8.5,8.5v18c0,4.7-3.8,8.5-8.5,8.5l0,0
		C491.8,123,488,119.2,488,114.5z"/>
	<path class="st4" d="M515,141.5v-45c0-4.7,3.8-8.5,8.5-8.5l0,0c4.7,0,8.5,3.8,8.5,8.5v45c0,4.7-3.8,8.5-8.5,8.5l0,0
		C518.8,150,515,146.2,515,141.5z"/>
	<circle class="st4" cx="469.5" cy="175.5" r="8.5"/>
	<path class="st4" d="M542.5,124.5V96c0-4.7,3.8-8.5,8.5-8.5l0,0c4.7,0,8.5,3.8,8.5,8.5v28.5c0,4.7-3.8,8.5-8.5,8.5l0,0
		C546.3,133,542.5,129.2,542.5,124.5z"/>
	<circle class="st4" cx="550.5" cy="151.5" r="8.5"/>
	<circle class="st4" cx="496.5" cy="141.5" r="8.5"/>
	<circle class="st4" cx="523.5" cy="168.5" r="8.5"/>
</g>
<g class="st2">
	<path class="st5" d="M372,109.5L372,109.5c0-4.7,3.8-8.5,8.5-8.5h3c4.7,0,8.5-3.8,8.5-8.5v0c0-4.7-3.8-8.5-8.5-8.5h-105
		c-4.7,0-8.5,3.8-8.5,8.5v0c0,4.7-3.8,8.5-8.5,8.5h-3c-4.7,0-8.5,3.8-8.5,8.5v0c0,4.7,3.8,8.5,8.5,8.5h13c4.7,0,8.5,3.8,8.5,8.5v0
		c0,4.7,3.8,8.5,8.5,8.5h105c4.7,0,8.5-3.8,8.5-8.5v0c0-4.7-3.8-8.5-8.5-8.5h-13C375.8,118,372,114.2,372,109.5z"/>
</g>
<circle class="st0" cx="409.5" cy="92.5" r="8.5"/>
<circle class="st0" cx="231.5" cy="109.5" r="8.5"/>
<g class="st2">
	<circle class="st6" cx="743.5" cy="92.5" r="8.5"/>
	<circle class="st6" cx="689.5" cy="92.5" r="8.5"/>
	<circle class="st6" cx="662.5" cy="92.5" r="8.5"/>
	<circle class="st6" cx="716.5" cy="92.5" r="8.5"/>
	<circle class="st6" cx="743.5" cy="122.5" r="8.5"/>
	<circle class="st6" cx="689.5" cy="120.5" r="8.5"/>
	<circle class="st6" cx="662.5" cy="128.5" r="8.5"/>
	<circle class="st6" cx="716.5" cy="133.5" r="8.5"/>
	<circle class="st6" cx="743.5" cy="159.5" r="8.5"/>
	<circle class="st6" cx="689.5" cy="157.5" r="8.5"/>
	<circle class="st6" cx="662.5" cy="165.5" r="8.5"/>
	<circle class="st6" cx="716.5" cy="170.5" r="8.5"/>
</g>
<g class="st2">
	<path class="st6" d="M966,62.5L966,62.5c0-4.7,3.8-8.5,8.5-8.5h3c4.7,0,8.5-3.8,8.5-8.5v0c0-4.7-3.8-8.5-8.5-8.5h-105
		c-4.7,0-8.5,3.8-8.5,8.5v0c0,4.7-3.8,8.5-8.5,8.5h-3c-4.7,0-8.5,3.8-8.5,8.5v0c0,4.7,3.8,8.5,8.5,8.5h13c4.7,0,8.5,3.8,8.5,8.5v0
		c0,4.7,3.8,8.5,8.5,8.5h105c4.7,0,8.5-3.8,8.5-8.5v0c0-4.7-3.8-8.5-8.5-8.5h-13C969.8,71,966,67.2,966,62.5z"/>
</g>
</svg>
